<svg width="16" height="16" viewBox="0 0 16 16" fill="none" xmlns="http://www.w3.org/2000/svg">
<g clip-path="url(#clip0_42_3)">
<path d="M7.98373 1.45164C9.27565 1.45164 10.5386 1.83474 11.6128 2.5525C12.687 3.27025 13.5242 4.29043 14.0186 5.48401C14.513 6.6776 14.6424 7.99098 14.3903 9.25808C14.1383 10.5252 13.5161 11.6891 12.6026 12.6026C11.6891 13.5162 10.5252 14.1383 9.25808 14.3903C7.99097 14.6424 6.67759 14.513 5.484 14.0186C4.29042 13.5242 3.27025 12.687 2.55249 11.6128C1.83473 10.5386 1.45163 9.27566 1.45163 7.98374C1.45832 6.25338 2.14867 4.5958 3.37223 3.37224C4.59579 2.14868 6.25337 1.45833 7.98373 1.45164V1.45164ZM7.98373 6.68116e-05C6.40611 0.00652074 4.86578 0.480235 3.55717 1.36141C2.24857 2.24258 1.23037 3.4917 0.631106 4.95108C0.031846 6.41046 -0.121605 8.01468 0.190125 9.5612C0.501855 11.1077 1.26479 12.5272 2.38262 13.6405C3.50044 14.7538 4.92304 15.5109 6.47082 15.8163C8.01861 16.1217 9.62218 15.9617 11.0791 15.3565C12.536 14.7513 13.781 13.728 14.6568 12.4158C15.5326 11.1036 16 9.56136 16.0001 7.98374C16.0001 6.93255 15.7925 5.89171 15.3892 4.92096C14.986 3.9502 14.395 3.06863 13.6502 2.32685C12.9053 1.58507 12.0214 0.997679 11.049 0.598388C10.0766 0.199097 9.0349 -0.00423349 7.98373 6.68116e-05V6.68116e-05Z" fill="#F2F2F2"/>
<path d="M11.707 7.38129H8.4954V4.16968H7.41397V7.38129H4.19873V8.46271H7.41397V11.6743H8.4954V8.46271H11.707V7.38129Z" fill="#F2F2F2"/>
</g>
<defs>
<clipPath id="clip0_42_3">
<rect width="16" height="16" fill="white"/>
</clipPath>
</defs>
</svg>
