<svg width="111" height="32" viewBox="0 0 111 32" fill="none" xmlns="http://www.w3.org/2000/svg">
<rect width="111" height="32" fill="transparent"/>
<g clip-path="url(#clip0_0_1)">
<path d="M43.3981 6.44848V11.4863H30.6665V6.44848H43.3981ZM33.1323 1.81372H40.0768V19.5719C40.0768 19.8406 40.123 20.0673 40.2152 20.252C40.3075 20.4283 40.4501 20.5627 40.643 20.655C40.8359 20.739 41.0833 20.781 41.3852 20.781C41.5949 20.781 41.8381 20.7558 42.1149 20.7054C42.4001 20.655 42.6097 20.6131 42.7439 20.5795L43.7504 25.4661C43.4401 25.5585 42.9955 25.6718 42.4168 25.8062C41.8465 25.9405 41.1671 26.0287 40.3788 26.0706C38.7852 26.1546 37.4475 25.9909 36.3655 25.5795C35.2836 25.1596 34.4701 24.5005 33.9249 23.6021C33.3797 22.7037 33.1155 21.5786 33.1323 20.2268V1.81372Z" fill="#4EA8DE"/>
<path d="M55.334 26.1462C53.2372 26.1462 51.4424 25.7306 49.9495 24.8994C48.4566 24.0597 47.3117 22.8926 46.515 21.3981C45.7182 19.8952 45.3198 18.1529 45.3198 16.1714C45.3198 14.1899 45.7182 12.4518 46.515 10.9573C47.3117 9.45436 48.4566 8.28727 49.9495 7.45604C51.4424 6.61641 53.2372 6.19659 55.334 6.19659C57.4308 6.19659 59.2256 6.61641 60.7185 7.45604C62.2114 8.28727 63.3563 9.45436 64.153 10.9573C64.9498 12.4518 65.3482 14.1899 65.3482 16.1714C65.3482 18.1529 64.9498 19.8952 64.153 21.3981C63.3563 22.8926 62.2114 24.0597 60.7185 24.8994C59.2256 25.7306 57.4308 26.1462 55.334 26.1462ZM55.3843 21.0077C55.9714 21.0077 56.4788 20.8104 56.9066 20.4157C57.3343 20.0211 57.6656 19.4586 57.9005 18.7281C58.1353 17.9976 58.2527 17.1286 58.2527 16.121C58.2527 15.1051 58.1353 14.2361 57.9005 13.514C57.6656 12.7835 57.3343 12.2209 56.9066 11.8263C56.4788 11.4317 55.9714 11.2344 55.3843 11.2344C54.7637 11.2344 54.2311 11.4317 53.7866 11.8263C53.3421 12.2209 53.0024 12.7835 52.7675 13.514C52.5327 14.2361 52.4153 15.1051 52.4153 16.121C52.4153 17.1286 52.5327 17.9976 52.7675 18.7281C53.0024 19.4586 53.3421 20.0211 53.7866 20.4157C54.2311 20.8104 54.7637 21.0077 55.3843 21.0077Z" fill="#4EA8DE"/>
<path d="M75.182 26.0453C73.8065 26.0453 72.54 25.6843 71.3826 24.9622C70.2336 24.2401 69.311 23.1444 68.6149 21.6751C67.9271 20.2057 67.5833 18.3543 67.5833 16.1209C67.5833 13.7867 67.9439 11.8892 68.6652 10.4282C69.3949 8.96725 70.3342 7.89672 71.4833 7.21662C72.6407 6.53652 73.8568 6.19647 75.1316 6.19647C76.0878 6.19647 76.9265 6.3644 77.6478 6.70025C78.3691 7.02771 78.9729 7.46851 79.4594 8.02267C79.9458 8.56843 80.3149 9.16877 80.5665 9.82368H80.6671V0H87.6116V25.7934H80.7174V22.6196H80.5665C80.2981 23.2746 79.9123 23.8623 79.4091 24.3829C78.9142 24.895 78.3103 25.3023 77.5974 25.6045C76.8929 25.8984 76.0878 26.0453 75.182 26.0453ZM77.7484 20.7053C78.3858 20.7053 78.931 20.5206 79.3839 20.1511C79.8452 19.7733 80.1974 19.2443 80.4407 18.5642C80.6923 17.8757 80.8181 17.0613 80.8181 16.1209C80.8181 15.1637 80.6923 14.3451 80.4407 13.665C80.1974 12.9765 79.8452 12.4517 79.3839 12.0907C78.931 11.7212 78.3858 11.5365 77.7484 11.5365C77.111 11.5365 76.5658 11.7212 76.1129 12.0907C75.6684 12.4517 75.3245 12.9765 75.0813 13.665C74.8465 14.3451 74.7291 15.1637 74.7291 16.1209C74.7291 17.0781 74.8465 17.9009 75.0813 18.5894C75.3245 19.2695 75.6684 19.7943 76.1129 20.1637C76.5658 20.5248 77.111 20.7053 77.7484 20.7053Z" fill="#5E60CE"/>
<path d="M100.331 26.1461C98.2339 26.1461 96.4391 25.7305 94.9462 24.8992C93.4533 24.0596 92.3084 22.8925 91.5116 21.398C90.7149 19.895 90.3165 18.1528 90.3165 16.1713C90.3165 14.1898 90.7149 12.4517 91.5116 10.9572C92.3084 9.45424 93.4533 8.28715 94.9462 7.45592C96.4391 6.61629 98.2339 6.19647 100.331 6.19647C102.427 6.19647 104.222 6.61629 105.715 7.45592C107.208 8.28715 108.353 9.45424 109.15 10.9572C109.946 12.4517 110.345 14.1898 110.345 16.1713C110.345 18.1528 109.946 19.895 109.15 21.398C108.353 22.8925 107.208 24.0596 105.715 24.8992C104.222 25.7305 102.427 26.1461 100.331 26.1461ZM100.381 21.0076C100.968 21.0076 101.476 20.8102 101.903 20.4156C102.331 20.021 102.662 19.4584 102.897 18.728C103.132 17.9975 103.249 17.1285 103.249 16.1209C103.249 15.105 103.132 14.2359 102.897 13.5139C102.662 12.7834 102.331 12.2208 101.903 11.8262C101.476 11.4316 100.968 11.2343 100.381 11.2343C99.7603 11.2343 99.2278 11.4316 98.7832 11.8262C98.3387 12.2208 97.9991 12.7834 97.7642 13.5139C97.5294 14.2359 97.412 15.105 97.412 16.1209C97.412 17.1285 97.5294 17.9975 97.7642 18.728C97.9991 19.4584 98.3387 20.021 98.7832 20.4156C99.2278 20.8102 99.7603 21.0076 100.381 21.0076Z" fill="#5E60CE"/>
<g clip-path="url(#clip1_0_1)">
<path d="M9.76148 2.68113C12.5298 6.19942 14.0076 10.5381 13.954 14.99V16.0528L14.8674 16.6091C16.0475 17.3243 16.9276 18.4336 17.3474 19.7348C16.9789 19.4632 16.5933 19.2147 16.193 18.9909L13.7574 17.6219L13.3198 20.385C13.2818 20.6291 13.231 20.8712 13.1675 21.1101H6.34275C6.24126 20.7975 6.15881 20.485 6.08269 20.1599L5.53088 17.6594L3.28554 18.9096C2.91043 19.1196 2.54826 19.3513 2.20094 19.6035C2.62887 18.3174 3.49062 17.2143 4.64289 16.4779L5.51185 15.9215V14.9338C5.52752 10.4999 7.02309 6.19422 9.76783 2.68113H9.76148ZM9.76783 0.0805664C9.62548 0.0809125 9.48806 0.131979 9.38092 0.224347L9.32383 0.274358C5.66633 4.30602 3.63537 9.51933 3.61537 14.9275C2.0633 15.92 0.914429 17.4184 0.369523 19.161C-0.175383 20.9036 -0.0816721 22.7794 0.63428 24.4608C1.3885 22.8191 2.6493 21.454 4.23696 20.56C4.39618 21.2398 4.60823 21.9065 4.87123 22.5542C4.90458 22.6787 4.97851 22.7889 5.08165 22.868C5.18479 22.9471 5.31142 22.9906 5.44208 22.9918H14.2458C14.4234 22.9918 14.601 22.823 14.6898 22.5604C14.9465 21.9446 15.1254 21.3001 15.2226 20.6413C16.8133 21.5315 18.0751 22.8978 18.8253 24.5421C19.5844 22.869 19.7019 20.9813 19.1561 19.2292C18.6102 17.4772 17.4379 15.9799 15.8569 15.015C15.9196 9.57496 13.8994 4.31148 10.1991 0.274358C10.144 0.213639 10.0766 0.165011 10.0012 0.131626C9.92581 0.0982413 9.84414 0.0808455 9.76148 0.0805664L9.76783 0.0805664Z" fill="#4EA8DE"/>
<path d="M9.76144 14.4087C9.27427 14.4087 8.798 14.2665 8.39267 14.0002C7.98734 13.7338 7.6711 13.3551 7.48381 12.9118C7.29652 12.4686 7.24656 11.9806 7.34023 11.5094C7.4339 11.0382 7.667 10.6049 8.01016 10.264C8.35333 9.92321 8.79118 9.69014 9.26853 9.5942C9.74589 9.49826 10.2414 9.54375 10.6925 9.72494C11.1437 9.90612 11.5303 10.2149 11.8037 10.6123C12.0771 11.0097 12.225 11.478 12.2288 11.9582V11.9582C12.2364 12.2693 12.1817 12.5789 12.0678 12.8692C11.954 13.1596 11.7832 13.4249 11.5653 13.6502C11.3473 13.8754 11.0865 14.0561 10.7977 14.182C10.5088 14.3079 10.1977 14.3764 9.88196 14.3837C9.84204 14.39 9.80136 14.39 9.76144 14.3837V14.4087Z" fill="#4EA8DE"/>
<path d="M13.1929 24.5485C13.0342 24.5434 12.8761 24.5697 12.7278 24.6258C12.5796 24.6818 12.4441 24.7665 12.3295 24.8748C12.2149 24.9831 12.1234 25.1129 12.0604 25.2565C11.9973 25.4001 11.964 25.5547 11.9624 25.7112V29.3995C11.9624 29.7211 12.092 30.0296 12.3228 30.2571C12.5536 30.4845 12.8665 30.6123 13.1929 30.6123C13.5192 30.6123 13.8322 30.4845 14.063 30.2571C14.2937 30.0296 14.4234 29.7211 14.4234 29.3995V25.7612C14.4285 25.6053 14.402 25.45 14.3455 25.3043C14.2891 25.1586 14.2037 25.0254 14.0945 24.9125C13.9853 24.7996 13.8544 24.7093 13.7094 24.6468C13.5644 24.5843 13.4082 24.5509 13.25 24.5485H13.1929Z" fill="#5E60CE"/>
<path d="M6.34277 24.5483C6.18137 24.5399 6.0199 24.5635 5.86797 24.6179C5.71604 24.6722 5.57676 24.7561 5.4584 24.8646C5.34005 24.9731 5.24505 25.1039 5.17905 25.2494C5.11305 25.3948 5.0774 25.5518 5.07422 25.711V29.3993C5.07422 29.721 5.20386 30.0295 5.43462 30.2569C5.66538 30.4843 5.97836 30.6121 6.30471 30.6121C6.63106 30.6121 6.94404 30.4843 7.1748 30.2569C7.40556 30.0295 7.5352 29.721 7.5352 29.3993V25.7611C7.54027 25.6052 7.5138 25.4498 7.45734 25.3041C7.40088 25.1584 7.31555 25.0252 7.20634 24.9123C7.09712 24.7995 6.9662 24.7091 6.8212 24.6466C6.6762 24.5841 6.52003 24.5507 6.3618 24.5483H6.34277Z" fill="#5E60CE"/>
<path d="M9.67263 24.5484C9.51436 24.545 9.35698 24.5725 9.20948 24.6291C9.06198 24.6858 8.92724 24.7705 8.81297 24.8785C8.6987 24.9865 8.60714 25.1156 8.54351 25.2584C8.47988 25.4013 8.44544 25.5551 8.44214 25.7111V30.7935C8.44214 31.1151 8.57178 31.4236 8.80254 31.651C9.0333 31.8785 9.34628 32.0062 9.67263 32.0062C9.99898 32.0062 10.312 31.8785 10.5427 31.651C10.7735 31.4236 10.9031 31.1151 10.9031 30.7935V25.7924C10.9082 25.6365 10.8817 25.4812 10.8253 25.3354C10.7688 25.1897 10.6835 25.0565 10.5743 24.9437C10.465 24.8308 10.3341 24.7405 10.1891 24.678C10.0441 24.6155 9.88795 24.582 9.72971 24.5796L9.67263 24.5484Z" fill="#5E60CE"/>
</g>
</g>
<defs>
<clipPath id="clip0_0_1">
<rect width="110.345" height="32" fill="white"/>
</clipPath>
<clipPath id="clip1_0_1">
<rect width="19.4849" height="31.9194" fill="white" transform="translate(0 0.0805664)"/>
</clipPath>
</defs>
</svg>
